<svg viewBox="0 0 1024 1024" xmlns="http://www.w3.org/2000/svg"><path d="M512 24c-.493-.002-1.076-.003-1.66-.003-133.726 0-254.777 54.267-342.333 141.98l-.007.008V54.938c0-22.09-17.91-40-40-40s-40 17.91-40 40v226.278c.244 1.703.55 3.173.94 4.61l-.06-.266c.284 3.058.873 5.868 1.745 8.55l-.078-.276c1.893 4.977 4.382 9.277 7.446 13.096l-.073-.094c1.805 2.035 3.777 3.847 5.92 5.442l.103.073c1.056 1.095 2.166 2.114 3.334 3.064l.07.054c.815.492 1.75.496 2.585.922 2.184 1.076 4.738 2.01 7.4 2.67l.268.057c2.163.692 4.706 1.225 7.325 1.498l.167.014c1.012.077 1.88.588 2.91.588h226.28c22.09 0 40-17.91 40-40s-17.91-40-40-40H207.675c74.392-84.315 182.693-137.22 303.35-137.22h1.027H512c225.29.057 407.902 182.703 407.902 408 0 225.333-182.668 408-408 408-161.813 0-301.625-94.198-367.59-230.75l-1.063-2.436c-6.6-13.557-20.27-22.734-36.086-22.734-22.094 0-40.005 17.91-40.005 40.005 0 6.214 1.416 12.096 3.943 17.343l-.104-.24c80.183 166.235 247.413 278.897 440.957 278.897C781.495 1000.083 1000 781.58 1000 512.04 1000 242.518 781.52 24.024 512 24z"/></svg>